<mxfile host="app.diagrams.net" modified="2024-03-02T05:01:39.985Z" agent="Mozilla/5.0 (Windows NT 10.0; Win64; x64) AppleWebKit/537.36 (KHTML, like Gecko) Chrome/122.0.0.0 Safari/537.36" etag="Lb9yc0ad2jIeDBvYfxxY" version="24.0.0" type="device">
  <diagram name="Page-1" id="4vyP0tUr_KqjRY6h0rgJ">
    <mxGraphModel dx="1029" dy="1113" grid="1" gridSize="10" guides="1" tooltips="1" connect="1" arrows="1" fold="1" page="1" pageScale="1" pageWidth="850" pageHeight="1100" math="0" shadow="0">
      <root>
        <mxCell id="0" />
        <mxCell id="1" parent="0" />
        <mxCell id="HMuIGYhf_ELPIJeTCSqk-5" value="" style="rounded=0;whiteSpace=wrap;html=1;" parent="1" vertex="1">
          <mxGeometry x="590" y="740" width="150" height="30" as="geometry" />
        </mxCell>
        <mxCell id="HMuIGYhf_ELPIJeTCSqk-6" value="" style="rounded=0;whiteSpace=wrap;html=1;" parent="1" vertex="1">
          <mxGeometry x="590" y="770" width="150" height="160" as="geometry" />
        </mxCell>
        <mxCell id="HMuIGYhf_ELPIJeTCSqk-7" value="Students" style="text;html=1;align=center;verticalAlign=middle;whiteSpace=wrap;rounded=0;" parent="1" vertex="1">
          <mxGeometry x="635" y="740" width="60" height="30" as="geometry" />
        </mxCell>
        <mxCell id="HMuIGYhf_ELPIJeTCSqk-8" value="&lt;span style=&quot;color: rgb(13, 13, 13); font-family: Söhne, ui-sans-serif, system-ui, -apple-system, &amp;quot;Segoe UI&amp;quot;, Roboto, Ubuntu, Cantarell, &amp;quot;Noto Sans&amp;quot;, sans-serif, &amp;quot;Helvetica Neue&amp;quot;, Arial, &amp;quot;Apple Color Emoji&amp;quot;, &amp;quot;Segoe UI Emoji&amp;quot;, &amp;quot;Segoe UI Symbol&amp;quot;, &amp;quot;Noto Color Emoji&amp;quot;; text-align: start; white-space-collapse: preserve; background-color: rgb(255, 255, 255);&quot;&gt;ID int PRIMARY&lt;br&gt;Student # varchar(50)&lt;br&gt;First name varchar(50)&lt;br&gt;Last name varchar(50)&lt;br&gt;Date of Birth date&lt;br&gt;Address varchar(100)&lt;br&gt;Phone # varchar(20)&lt;br&gt;Gender tiny int&lt;/span&gt;" style="text;html=1;align=center;verticalAlign=middle;whiteSpace=wrap;rounded=0;" parent="1" vertex="1">
          <mxGeometry x="590" y="770" width="150" height="160" as="geometry" />
        </mxCell>
        <mxCell id="HMuIGYhf_ELPIJeTCSqk-9" value="" style="rounded=0;whiteSpace=wrap;html=1;" parent="1" vertex="1">
          <mxGeometry x="90" y="100" width="150" height="30" as="geometry" />
        </mxCell>
        <mxCell id="HMuIGYhf_ELPIJeTCSqk-10" value="" style="rounded=0;whiteSpace=wrap;html=1;" parent="1" vertex="1">
          <mxGeometry x="90" y="130" width="150" height="160" as="geometry" />
        </mxCell>
        <mxCell id="HMuIGYhf_ELPIJeTCSqk-11" value="Teacher" style="text;html=1;align=center;verticalAlign=middle;whiteSpace=wrap;rounded=0;" parent="1" vertex="1">
          <mxGeometry x="135" y="100" width="60" height="30" as="geometry" />
        </mxCell>
        <mxCell id="HMuIGYhf_ELPIJeTCSqk-13" value="" style="rounded=0;whiteSpace=wrap;html=1;" parent="1" vertex="1">
          <mxGeometry x="350" y="420" width="150" height="30" as="geometry" />
        </mxCell>
        <mxCell id="HMuIGYhf_ELPIJeTCSqk-14" value="" style="rounded=0;whiteSpace=wrap;html=1;" parent="1" vertex="1">
          <mxGeometry x="350" y="450" width="150" height="160" as="geometry" />
        </mxCell>
        <mxCell id="HMuIGYhf_ELPIJeTCSqk-15" value="Classes" style="text;html=1;align=center;verticalAlign=middle;whiteSpace=wrap;rounded=0;" parent="1" vertex="1">
          <mxGeometry x="395" y="420" width="60" height="30" as="geometry" />
        </mxCell>
        <mxCell id="HMuIGYhf_ELPIJeTCSqk-18" value="" style="endArrow=none;dashed=1;html=1;rounded=0;exitX=1;exitY=1;exitDx=0;exitDy=0;" parent="1" edge="1" source="HMuIGYhf_ELPIJeTCSqk-22">
          <mxGeometry width="50" height="50" relative="1" as="geometry">
            <mxPoint x="300" y="195" as="sourcePoint" />
            <mxPoint x="245" y="195" as="targetPoint" />
          </mxGeometry>
        </mxCell>
        <mxCell id="HMuIGYhf_ELPIJeTCSqk-19" value="1" style="text;html=1;align=center;verticalAlign=middle;whiteSpace=wrap;rounded=0;" parent="1" vertex="1">
          <mxGeometry x="145" y="290" width="30" height="30" as="geometry" />
        </mxCell>
        <mxCell id="HMuIGYhf_ELPIJeTCSqk-20" value="1" style="text;html=1;align=center;verticalAlign=middle;whiteSpace=wrap;rounded=0;" parent="1" vertex="1">
          <mxGeometry x="240" y="165" width="30" height="30" as="geometry" />
        </mxCell>
        <mxCell id="HMuIGYhf_ELPIJeTCSqk-21" value="M" style="text;html=1;align=center;verticalAlign=middle;whiteSpace=wrap;rounded=0;" parent="1" vertex="1">
          <mxGeometry x="145" y="390" width="30" height="30" as="geometry" />
        </mxCell>
        <mxCell id="HMuIGYhf_ELPIJeTCSqk-22" value="M" style="text;html=1;align=center;verticalAlign=middle;whiteSpace=wrap;rounded=0;" parent="1" vertex="1">
          <mxGeometry x="310" y="165" width="30" height="30" as="geometry" />
        </mxCell>
        <mxCell id="s1Z5CNHpz08y2yKvGwrX-1" value="" style="rounded=0;whiteSpace=wrap;html=1;" vertex="1" parent="1">
          <mxGeometry x="340" y="100" width="150" height="30" as="geometry" />
        </mxCell>
        <mxCell id="s1Z5CNHpz08y2yKvGwrX-2" value="" style="rounded=0;whiteSpace=wrap;html=1;" vertex="1" parent="1">
          <mxGeometry x="340" y="130" width="150" height="160" as="geometry" />
        </mxCell>
        <mxCell id="s1Z5CNHpz08y2yKvGwrX-3" value="Courses" style="text;html=1;align=center;verticalAlign=middle;whiteSpace=wrap;rounded=0;" vertex="1" parent="1">
          <mxGeometry x="385" y="100" width="60" height="30" as="geometry" />
        </mxCell>
        <mxCell id="s1Z5CNHpz08y2yKvGwrX-5" value="" style="rounded=0;whiteSpace=wrap;html=1;" vertex="1" parent="1">
          <mxGeometry x="590" y="100" width="150" height="30" as="geometry" />
        </mxCell>
        <mxCell id="s1Z5CNHpz08y2yKvGwrX-6" value="" style="rounded=0;whiteSpace=wrap;html=1;" vertex="1" parent="1">
          <mxGeometry x="590" y="130" width="150" height="160" as="geometry" />
        </mxCell>
        <mxCell id="s1Z5CNHpz08y2yKvGwrX-7" value="Grade" style="text;html=1;align=center;verticalAlign=middle;whiteSpace=wrap;rounded=0;" vertex="1" parent="1">
          <mxGeometry x="635" y="100" width="60" height="30" as="geometry" />
        </mxCell>
        <mxCell id="s1Z5CNHpz08y2yKvGwrX-9" value="" style="rounded=0;whiteSpace=wrap;html=1;" vertex="1" parent="1">
          <mxGeometry x="100" y="420" width="150" height="30" as="geometry" />
        </mxCell>
        <mxCell id="s1Z5CNHpz08y2yKvGwrX-10" value="" style="rounded=0;whiteSpace=wrap;html=1;" vertex="1" parent="1">
          <mxGeometry x="100" y="450" width="150" height="160" as="geometry" />
        </mxCell>
        <mxCell id="s1Z5CNHpz08y2yKvGwrX-11" value="Classrooms" style="text;html=1;align=center;verticalAlign=middle;whiteSpace=wrap;rounded=0;" vertex="1" parent="1">
          <mxGeometry x="145" y="420" width="60" height="30" as="geometry" />
        </mxCell>
        <mxCell id="s1Z5CNHpz08y2yKvGwrX-13" value="" style="rounded=0;whiteSpace=wrap;html=1;" vertex="1" parent="1">
          <mxGeometry x="340" y="740" width="150" height="30" as="geometry" />
        </mxCell>
        <mxCell id="s1Z5CNHpz08y2yKvGwrX-14" value="" style="rounded=0;whiteSpace=wrap;html=1;" vertex="1" parent="1">
          <mxGeometry x="340" y="770" width="150" height="160" as="geometry" />
        </mxCell>
        <mxCell id="s1Z5CNHpz08y2yKvGwrX-15" value="Student_class" style="text;html=1;align=center;verticalAlign=middle;whiteSpace=wrap;rounded=0;" vertex="1" parent="1">
          <mxGeometry x="385" y="740" width="60" height="30" as="geometry" />
        </mxCell>
        <mxCell id="s1Z5CNHpz08y2yKvGwrX-17" value="" style="endArrow=none;dashed=1;html=1;rounded=0;entryX=0.5;entryY=0;entryDx=0;entryDy=0;exitX=0.567;exitY=1;exitDx=0;exitDy=0;exitPerimeter=0;" edge="1" parent="1" target="s1Z5CNHpz08y2yKvGwrX-11">
          <mxGeometry width="50" height="50" relative="1" as="geometry">
            <mxPoint x="175.04999999999995" y="290" as="sourcePoint" />
            <mxPoint x="182.01999999999998" y="420" as="targetPoint" />
          </mxGeometry>
        </mxCell>
        <mxCell id="s1Z5CNHpz08y2yKvGwrX-18" value="&lt;span style=&quot;color: rgb(13, 13, 13); font-family: Söhne, ui-sans-serif, system-ui, -apple-system, &amp;quot;Segoe UI&amp;quot;, Roboto, Ubuntu, Cantarell, &amp;quot;Noto Sans&amp;quot;, sans-serif, &amp;quot;Helvetica Neue&amp;quot;, Arial, &amp;quot;Apple Color Emoji&amp;quot;, &amp;quot;Segoe UI Emoji&amp;quot;, &amp;quot;Segoe UI Symbol&amp;quot;, &amp;quot;Noto Color Emoji&amp;quot;; text-align: start; white-space-collapse: preserve; background-color: rgb(255, 255, 255);&quot;&gt;&lt;font style=&quot;font-size: 12px;&quot;&gt;ID int PRIMARY &lt;br&gt;Teacher # varchar(50)&lt;br&gt;First name varchar(50)&lt;br&gt;Date of Birth date&lt;br&gt;Address varchar(100)&lt;br&gt;Phone # varchar(20)&lt;br&gt;Gender tiny int&lt;br&gt;Salary int&lt;/font&gt;&lt;/span&gt;" style="text;html=1;align=center;verticalAlign=middle;whiteSpace=wrap;rounded=0;" vertex="1" parent="1">
          <mxGeometry x="90" y="130" width="150" height="160" as="geometry" />
        </mxCell>
        <mxCell id="s1Z5CNHpz08y2yKvGwrX-20" value="&lt;span style=&quot;color: rgb(13, 13, 13); font-family: Söhne, ui-sans-serif, system-ui, -apple-system, &amp;quot;Segoe UI&amp;quot;, Roboto, Ubuntu, Cantarell, &amp;quot;Noto Sans&amp;quot;, sans-serif, &amp;quot;Helvetica Neue&amp;quot;, Arial, &amp;quot;Apple Color Emoji&amp;quot;, &amp;quot;Segoe UI Emoji&amp;quot;, &amp;quot;Segoe UI Symbol&amp;quot;, &amp;quot;Noto Color Emoji&amp;quot;; text-align: start; white-space-collapse: preserve; background-color: rgb(255, 255, 255);&quot;&gt;&lt;font style=&quot;font-size: 12px;&quot;&gt;ID int PRIMARY&lt;br&gt;Course # varchar(20)&lt;br&gt;Title varchar(50)&lt;br&gt;Credit tiny int&lt;br&gt;Duration tiny int&lt;br&gt;Schedule text&lt;br&gt;Teacher ID int FOREIGN&lt;/font&gt;&lt;/span&gt;" style="text;html=1;align=center;verticalAlign=middle;whiteSpace=wrap;rounded=0;" vertex="1" parent="1">
          <mxGeometry x="340" y="130" width="150" height="160" as="geometry" />
        </mxCell>
        <mxCell id="s1Z5CNHpz08y2yKvGwrX-21" value="&lt;span style=&quot;color: rgb(13, 13, 13); font-family: Söhne, ui-sans-serif, system-ui, -apple-system, &amp;quot;Segoe UI&amp;quot;, Roboto, Ubuntu, Cantarell, &amp;quot;Noto Sans&amp;quot;, sans-serif, &amp;quot;Helvetica Neue&amp;quot;, Arial, &amp;quot;Apple Color Emoji&amp;quot;, &amp;quot;Segoe UI Emoji&amp;quot;, &amp;quot;Segoe UI Symbol&amp;quot;, &amp;quot;Noto Color Emoji&amp;quot;; text-align: start; white-space-collapse: preserve; background-color: rgb(255, 255, 255);&quot;&gt;&lt;font style=&quot;font-size: 12px;&quot;&gt;ID int PRIMARY&lt;br&gt;Courses ID int FOREIGN&lt;br&gt;Percentage decimal&lt;br&gt;Student ID int FOREIGN&lt;/font&gt;&lt;/span&gt;" style="text;html=1;align=center;verticalAlign=middle;whiteSpace=wrap;rounded=0;" vertex="1" parent="1">
          <mxGeometry x="590" y="130" width="150" height="160" as="geometry" />
        </mxCell>
        <mxCell id="s1Z5CNHpz08y2yKvGwrX-22" value="&lt;span style=&quot;color: rgb(13, 13, 13); font-family: Söhne, ui-sans-serif, system-ui, -apple-system, &amp;quot;Segoe UI&amp;quot;, Roboto, Ubuntu, Cantarell, &amp;quot;Noto Sans&amp;quot;, sans-serif, &amp;quot;Helvetica Neue&amp;quot;, Arial, &amp;quot;Apple Color Emoji&amp;quot;, &amp;quot;Segoe UI Emoji&amp;quot;, &amp;quot;Segoe UI Symbol&amp;quot;, &amp;quot;Noto Color Emoji&amp;quot;; text-align: start; white-space-collapse: preserve; background-color: rgb(255, 255, 255);&quot;&gt;&lt;font style=&quot;font-size: 12px;&quot;&gt;ID int PRIMARY &lt;br&gt;Class # varchar(20)&lt;br&gt;# Computers tiny int&lt;br&gt;# Chairs tiny int&lt;br&gt;Projector boolean&lt;br&gt;Teacher ID int FOREIGN&lt;/font&gt;&lt;/span&gt;" style="text;html=1;align=center;verticalAlign=middle;whiteSpace=wrap;rounded=0;" vertex="1" parent="1">
          <mxGeometry x="100" y="450" width="150" height="160" as="geometry" />
        </mxCell>
        <mxCell id="s1Z5CNHpz08y2yKvGwrX-24" value="1" style="text;html=1;align=center;verticalAlign=middle;whiteSpace=wrap;rounded=0;" vertex="1" parent="1">
          <mxGeometry x="650" y="710" width="30" height="30" as="geometry" />
        </mxCell>
        <mxCell id="s1Z5CNHpz08y2yKvGwrX-25" value="M" style="text;html=1;align=center;verticalAlign=middle;whiteSpace=wrap;rounded=0;" vertex="1" parent="1">
          <mxGeometry x="650" y="290" width="30" height="30" as="geometry" />
        </mxCell>
        <mxCell id="s1Z5CNHpz08y2yKvGwrX-26" value="" style="endArrow=none;dashed=1;html=1;rounded=0;entryX=0.25;entryY=0;entryDx=0;entryDy=0;exitX=0.393;exitY=1.025;exitDx=0;exitDy=0;exitPerimeter=0;" edge="1" parent="1" source="s1Z5CNHpz08y2yKvGwrX-21" target="HMuIGYhf_ELPIJeTCSqk-7">
          <mxGeometry width="50" height="50" relative="1" as="geometry">
            <mxPoint x="649.05" y="450" as="sourcePoint" />
            <mxPoint x="649" y="580" as="targetPoint" />
          </mxGeometry>
        </mxCell>
        <mxCell id="s1Z5CNHpz08y2yKvGwrX-27" value="&lt;span style=&quot;color: rgb(13, 13, 13); font-family: Söhne, ui-sans-serif, system-ui, -apple-system, &amp;quot;Segoe UI&amp;quot;, Roboto, Ubuntu, Cantarell, &amp;quot;Noto Sans&amp;quot;, sans-serif, &amp;quot;Helvetica Neue&amp;quot;, Arial, &amp;quot;Apple Color Emoji&amp;quot;, &amp;quot;Segoe UI Emoji&amp;quot;, &amp;quot;Segoe UI Symbol&amp;quot;, &amp;quot;Noto Color Emoji&amp;quot;; text-align: start; white-space-collapse: preserve; background-color: rgb(255, 255, 255);&quot;&gt;ID int PRIMARY&lt;/span&gt;&lt;div&gt;&lt;span style=&quot;color: rgb(13, 13, 13); font-family: Söhne, ui-sans-serif, system-ui, -apple-system, &amp;quot;Segoe UI&amp;quot;, Roboto, Ubuntu, Cantarell, &amp;quot;Noto Sans&amp;quot;, sans-serif, &amp;quot;Helvetica Neue&amp;quot;, Arial, &amp;quot;Apple Color Emoji&amp;quot;, &amp;quot;Segoe UI Emoji&amp;quot;, &amp;quot;Segoe UI Symbol&amp;quot;, &amp;quot;Noto Color Emoji&amp;quot;; text-align: start; white-space-collapse: preserve; background-color: rgb(255, 255, 255);&quot;&gt;Classes ID int FOREIGN&lt;br&gt;Students ID int FOREIGN&lt;/span&gt;&lt;/div&gt;" style="text;html=1;align=center;verticalAlign=middle;whiteSpace=wrap;rounded=0;" vertex="1" parent="1">
          <mxGeometry x="340" y="770" width="150" height="160" as="geometry" />
        </mxCell>
        <mxCell id="s1Z5CNHpz08y2yKvGwrX-28" value="" style="endArrow=none;dashed=1;html=1;rounded=0;entryX=0.5;entryY=0;entryDx=0;entryDy=0;exitX=0.567;exitY=1;exitDx=0;exitDy=0;exitPerimeter=0;" edge="1" parent="1">
          <mxGeometry width="50" height="50" relative="1" as="geometry">
            <mxPoint x="440.04999999999995" y="290" as="sourcePoint" />
            <mxPoint x="440" y="420" as="targetPoint" />
          </mxGeometry>
        </mxCell>
        <mxCell id="s1Z5CNHpz08y2yKvGwrX-29" value="1" style="text;html=1;align=center;verticalAlign=middle;whiteSpace=wrap;rounded=0;" vertex="1" parent="1">
          <mxGeometry x="410" y="290" width="30" height="30" as="geometry" />
        </mxCell>
        <mxCell id="s1Z5CNHpz08y2yKvGwrX-30" value="M" style="text;html=1;align=center;verticalAlign=middle;whiteSpace=wrap;rounded=0;" vertex="1" parent="1">
          <mxGeometry x="410" y="390" width="30" height="30" as="geometry" />
        </mxCell>
        <mxCell id="s1Z5CNHpz08y2yKvGwrX-31" value="&lt;span style=&quot;color: rgb(13, 13, 13); font-family: Söhne, ui-sans-serif, system-ui, -apple-system, &amp;quot;Segoe UI&amp;quot;, Roboto, Ubuntu, Cantarell, &amp;quot;Noto Sans&amp;quot;, sans-serif, &amp;quot;Helvetica Neue&amp;quot;, Arial, &amp;quot;Apple Color Emoji&amp;quot;, &amp;quot;Segoe UI Emoji&amp;quot;, &amp;quot;Segoe UI Symbol&amp;quot;, &amp;quot;Noto Color Emoji&amp;quot;; text-align: start; white-space-collapse: preserve; background-color: rgb(255, 255, 255);&quot;&gt;ID int PRIMARY&lt;/span&gt;&lt;div&gt;&lt;span style=&quot;color: rgb(13, 13, 13); font-family: Söhne, ui-sans-serif, system-ui, -apple-system, &amp;quot;Segoe UI&amp;quot;, Roboto, Ubuntu, Cantarell, &amp;quot;Noto Sans&amp;quot;, sans-serif, &amp;quot;Helvetica Neue&amp;quot;, Arial, &amp;quot;Apple Color Emoji&amp;quot;, &amp;quot;Segoe UI Emoji&amp;quot;, &amp;quot;Segoe UI Symbol&amp;quot;, &amp;quot;Noto Color Emoji&amp;quot;; text-align: start; white-space-collapse: preserve; background-color: rgb(255, 255, 255);&quot;&gt;Class # varchar(20)&lt;/span&gt;&lt;/div&gt;&lt;div&gt;&lt;span style=&quot;color: rgb(13, 13, 13); font-family: Söhne, ui-sans-serif, system-ui, -apple-system, &amp;quot;Segoe UI&amp;quot;, Roboto, Ubuntu, Cantarell, &amp;quot;Noto Sans&amp;quot;, sans-serif, &amp;quot;Helvetica Neue&amp;quot;, Arial, &amp;quot;Apple Color Emoji&amp;quot;, &amp;quot;Segoe UI Emoji&amp;quot;, &amp;quot;Segoe UI Symbol&amp;quot;, &amp;quot;Noto Color Emoji&amp;quot;; text-align: start; white-space-collapse: preserve; background-color: rgb(255, 255, 255);&quot;&gt;# Computers int&lt;/span&gt;&lt;/div&gt;&lt;div&gt;&lt;span style=&quot;color: rgb(13, 13, 13); font-family: Söhne, ui-sans-serif, system-ui, -apple-system, &amp;quot;Segoe UI&amp;quot;, Roboto, Ubuntu, Cantarell, &amp;quot;Noto Sans&amp;quot;, sans-serif, &amp;quot;Helvetica Neue&amp;quot;, Arial, &amp;quot;Apple Color Emoji&amp;quot;, &amp;quot;Segoe UI Emoji&amp;quot;, &amp;quot;Segoe UI Symbol&amp;quot;, &amp;quot;Noto Color Emoji&amp;quot;; text-align: start; white-space-collapse: preserve; background-color: rgb(255, 255, 255);&quot;&gt;# Chairs int&lt;/span&gt;&lt;/div&gt;&lt;div&gt;&lt;span style=&quot;color: rgb(13, 13, 13); font-family: Söhne, ui-sans-serif, system-ui, -apple-system, &amp;quot;Segoe UI&amp;quot;, Roboto, Ubuntu, Cantarell, &amp;quot;Noto Sans&amp;quot;, sans-serif, &amp;quot;Helvetica Neue&amp;quot;, Arial, &amp;quot;Apple Color Emoji&amp;quot;, &amp;quot;Segoe UI Emoji&amp;quot;, &amp;quot;Segoe UI Symbol&amp;quot;, &amp;quot;Noto Color Emoji&amp;quot;; text-align: start; white-space-collapse: preserve; background-color: rgb(255, 255, 255);&quot;&gt;Projector Boolean&lt;br&gt;&lt;font style=&quot;font-size: 12px;&quot;&gt;Courses ID int FOREIGN&lt;/font&gt;&lt;/span&gt;&lt;/div&gt;" style="text;html=1;align=center;verticalAlign=middle;whiteSpace=wrap;rounded=0;" vertex="1" parent="1">
          <mxGeometry x="350" y="450" width="150" height="160" as="geometry" />
        </mxCell>
        <mxCell id="s1Z5CNHpz08y2yKvGwrX-32" value="" style="endArrow=none;dashed=1;html=1;rounded=0;exitX=1;exitY=1;exitDx=0;exitDy=0;" edge="1" parent="1" source="s1Z5CNHpz08y2yKvGwrX-34">
          <mxGeometry width="50" height="50" relative="1" as="geometry">
            <mxPoint x="550" y="195" as="sourcePoint" />
            <mxPoint x="495" y="195" as="targetPoint" />
          </mxGeometry>
        </mxCell>
        <mxCell id="s1Z5CNHpz08y2yKvGwrX-33" value="1" style="text;html=1;align=center;verticalAlign=middle;whiteSpace=wrap;rounded=0;" vertex="1" parent="1">
          <mxGeometry x="490" y="165" width="30" height="30" as="geometry" />
        </mxCell>
        <mxCell id="s1Z5CNHpz08y2yKvGwrX-34" value="1" style="text;html=1;align=center;verticalAlign=middle;whiteSpace=wrap;rounded=0;" vertex="1" parent="1">
          <mxGeometry x="560" y="165" width="30" height="30" as="geometry" />
        </mxCell>
        <mxCell id="s1Z5CNHpz08y2yKvGwrX-35" value="" style="endArrow=none;dashed=1;html=1;rounded=0;exitX=1;exitY=1;exitDx=0;exitDy=0;" edge="1" parent="1" source="s1Z5CNHpz08y2yKvGwrX-37">
          <mxGeometry width="50" height="50" relative="1" as="geometry">
            <mxPoint x="550" y="850" as="sourcePoint" />
            <mxPoint x="495" y="850" as="targetPoint" />
          </mxGeometry>
        </mxCell>
        <mxCell id="s1Z5CNHpz08y2yKvGwrX-36" value="M" style="text;html=1;align=center;verticalAlign=middle;whiteSpace=wrap;rounded=0;" vertex="1" parent="1">
          <mxGeometry x="490" y="820" width="30" height="30" as="geometry" />
        </mxCell>
        <mxCell id="s1Z5CNHpz08y2yKvGwrX-37" value="1" style="text;html=1;align=center;verticalAlign=middle;whiteSpace=wrap;rounded=0;" vertex="1" parent="1">
          <mxGeometry x="560" y="820" width="30" height="30" as="geometry" />
        </mxCell>
        <mxCell id="s1Z5CNHpz08y2yKvGwrX-38" value="" style="endArrow=none;dashed=1;html=1;rounded=0;entryX=0.5;entryY=0;entryDx=0;entryDy=0;exitX=0.567;exitY=1;exitDx=0;exitDy=0;exitPerimeter=0;" edge="1" parent="1">
          <mxGeometry width="50" height="50" relative="1" as="geometry">
            <mxPoint x="439.04999999999995" y="610" as="sourcePoint" />
            <mxPoint x="439" y="740" as="targetPoint" />
          </mxGeometry>
        </mxCell>
        <mxCell id="s1Z5CNHpz08y2yKvGwrX-39" value="1" style="text;html=1;align=center;verticalAlign=middle;whiteSpace=wrap;rounded=0;" vertex="1" parent="1">
          <mxGeometry x="410" y="610" width="30" height="30" as="geometry" />
        </mxCell>
        <mxCell id="s1Z5CNHpz08y2yKvGwrX-40" value="M" style="text;html=1;align=center;verticalAlign=middle;whiteSpace=wrap;rounded=0;" vertex="1" parent="1">
          <mxGeometry x="410" y="710" width="30" height="30" as="geometry" />
        </mxCell>
      </root>
    </mxGraphModel>
  </diagram>
</mxfile>
